<?xml version="1.0" encoding="utf-8"?>
<!-- Generator: Adobe Illustrator 16.0.0, SVG Export Plug-In . SVG Version: 6.00 Build 0)  -->
<!DOCTYPE svg PUBLIC "-//W3C//DTD SVG 1.1//EN" "http://www.w3.org/Graphics/SVG/1.1/DTD/svg11.dtd">
<svg version="1.1" id="Layer_1" xmlns="http://www.w3.org/2000/svg" xmlns:xlink="http://www.w3.org/1999/xlink" x="0px" y="0px"
	 width="64px" height="64px" viewBox="0 0 64 64" enable-background="new 0 0 64 64" xml:space="preserve">
<circle fill="#F2F2F2" cx="32" cy="32" r="32"/>
<path fill-rule="evenodd" clip-rule="evenodd" fill="#333333" d="M36,21c0-1.122,0-1.854,0-2c0.02,0,6,0.007,6,4c1.52,0,0.479,0,2,0
	c0-7-8-4-8-9c-1.578,0-0.424,0-2,0c0,9.238,0,14.636,0,23.731c-1.432-0.999-3.603-1.371-5.964-0.795
	c-3.907,0.954-5.959,3.854-5.277,6.652c0.683,2.797,3.84,4.428,7.748,3.476c2.231-0.545,3.853-1.726,4.71-3.158
	c0.43-0.613,0.719-1.287,0.783-2.019c0,0,0-8.519,0-15.888c0.02,0,6,0.007,6,4c1.52,0,0.479,0,2,0C44,23,36,26,36,21z"/>
</svg>
