<?xml version="1.0" encoding="UTF-8" standalone="no"?>
<svg
   xmlns:dc="http://purl.org/dc/elements/1.1/"
   xmlns:cc="http://creativecommons.org/ns#"
   xmlns:rdf="http://www.w3.org/1999/02/22-rdf-syntax-ns#"
   xmlns:svg="http://www.w3.org/2000/svg"
   xmlns="http://www.w3.org/2000/svg"
   xmlns:sodipodi="http://sodipodi.sourceforge.net/DTD/sodipodi-0.dtd"
   xmlns:inkscape="http://www.inkscape.org/namespaces/inkscape"
   version="1.1"
   id="Layer_1"
   x="0px"
   y="0px"
   width="70.580246"
   height="70.580589"
   viewBox="10.8 -21.6 152.45333 205.813"
   enable-background="new 0 0 216 216"
   xml:space="preserve"
   inkscape:version="0.48.4 r9939"
   sodipodi:docname="noun_23970_cc.svg"><metadata
     id="metadata3063"><rdf:RDF><cc:Work
         rdf:about=""><dc:format>image/svg+xml</dc:format><dc:type
           rdf:resource="http://purl.org/dc/dcmitype/StillImage" /></cc:Work></rdf:RDF></metadata><defs
     id="defs3061" /><sodipodi:namedview
     pagecolor="#ffffff"
     bordercolor="#666666"
     borderopacity="1"
     objecttolerance="10"
     gridtolerance="10"
     guidetolerance="10"
     inkscape:pageopacity="0"
     inkscape:pageshadow="2"
     inkscape:window-width="640"
     inkscape:window-height="480"
     id="namedview3059"
     showgrid="false"
     fit-margin-top="0"
     fit-margin-left="0"
     fit-margin-right="0"
     fit-margin-bottom="0"
     inkscape:zoom="1.668772"
     inkscape:cx="22.194851"
     inkscape:cy="43.223241"
     inkscape:window-x="0"
     inkscape:window-y="24"
     inkscape:window-maximized="0"
     inkscape:current-layer="Layer_1" /><g
     id="g3045"
     transform="translate(-20.722334,-25.944)"><path
       d="m 195.381,53.284 c 3.268,-2.532 5.188,-6.409 5.188,-10.579 0,-7.389 -6.012,-13.4 -13.4,-13.4 -3.223,0 -6.269,1.13 -8.691,3.203 C 159.285,14.337 134.214,4.344 107.75,4.344 c -20.787,0 -40.787,6.161 -57.895,17.827 -2.076,-1.349 -4.467,-2.057 -6.963,-2.057 -3.666,0 -7.162,1.575 -9.608,4.326 -3.478,2.836 -5.47,7.021 -5.47,11.499 0,1.826 0.332,3.608 0.987,5.311 -15.454,18.471 -23.958,41.881 -23.958,66 0,14.706 3.037,28.898 9.03,42.202 -1.315,1.086 -2.483,2.292 -3.479,3.594 -7.418,9.707 -5.556,23.64 4.15,31.059 3.894,2.975 8.535,4.548 13.423,4.548 4.358,0 8.691,-1.313 12.306,-3.714 18.715,16.269 42.641,25.218 67.476,25.218 56.743,0 102.906,-46.163 102.906,-102.906 0.001,-19.132 -5.277,-37.767 -15.274,-53.967 z m -2.208,-3.421 c -2.877,-4.273 -6.091,-8.353 -9.575,-12.151 1.337,-1.015 2.958,-1.562 4.664,-1.562 4.268,0 7.74,3.473 7.74,7.741 0,2.348 -1.04,4.511 -2.829,5.972 z M 34.891,26.116 c 2.234,-1.77 4.916,-2.704 7.764,-2.704 1.473,0 2.942,0.27 4.329,0.787 -5.031,3.688 -9.734,7.836 -14.018,12.366 -0.413,-1.146 -0.628,-2.36 -0.628,-3.583 0,-2.515 0.906,-4.949 2.553,-6.866 z M 139.725,202.633 C 138.922,199.952 136.442,198 133.5,198 c -3.591,0 -6.5,2.909 -6.5,6.5 0,0.501 0.062,0.987 0.17,1.455 -6.286,1.234 -12.777,1.889 -19.42,1.889 -24.573,0 -48.235,-8.963 -66.627,-25.237 l -0.696,-0.615 -0.751,0.547 c -3.366,2.451 -7.523,3.802 -11.707,3.802 -4.376,0 -8.532,-1.408 -12.019,-4.073 -8.693,-6.645 -10.361,-19.123 -3.717,-27.816 1.049,-1.373 2.316,-2.629 3.769,-3.734 l 0.738,-0.562 -0.389,-0.843 C 10.249,136.078 7.156,121.925 7.156,107.251 7.156,83.443 15.631,60.344 31.02,42.207 l 0.469,-0.553 -0.293,-0.662 c -0.71,-1.607 -1.069,-3.307 -1.069,-5.052 0,-0.349 0.015,-0.696 0.043,-1.04 0.227,1.498 0.716,2.952 1.448,4.281 l 0.778,1.413 1.088,-1.19 C 38.416,34.008 43.949,29.138 49.93,24.929 l 0.58,-0.402 c 16.864,-11.69 36.657,-17.87 57.239,-17.87 26.226,0 51.055,10.04 69.911,28.271 l 0.822,0.795 0.804,-0.812 c 2.1,-2.124 4.771,-3.293 7.753,-3.293 6.114,0 10.96,4.974 10.96,11.088 0,0.031 0,0.062 0,0.093 0,-5.031 -4.692,-8.961 -9.866,-8.961 -2.7,0 -5.173,1.058 -7.075,2.977 l -0.754,0.792 0.78,0.813 c 3.979,4.238 7.62,8.851 10.808,13.707 l 0.949,1.465 c 10.139,16.045 15.5,34.6 15.5,53.659 0.001,44.294 -28.776,81.991 -68.616,95.382 z"
       id="path3047"
       inkscape:connector-curvature="0" /><path
       d="m 17.501,151.717 -0.717,-1.452 -1.141,1.149 c -0.664,0.668 -1.188,1.261 -1.649,1.864 -6.414,8.393 -4.804,20.439 3.588,26.854 3.36,2.567 7.367,3.925 11.589,3.925 3.076,0 6.145,-0.748 8.872,-2.164 l 1.437,-0.745 -1.171,-1.118 C 29.736,171.849 22.735,162.322 17.501,151.717 z m 11.67,30.027 c -3.71,0 -7.231,-1.193 -10.185,-3.45 -7.379,-5.64 -8.794,-16.231 -3.154,-23.611 0.111,-0.146 0.229,-0.293 0.352,-0.44 5.008,9.745 11.495,18.572 19.311,26.278 -2.005,0.803 -4.162,1.223 -6.324,1.223 z"
       id="path3049"
       inkscape:connector-curvature="0" /><circle
       cx="163.25"
       cy="132.25"
       r="4.25"
       id="circle3051"
       sodipodi:cx="163.25"
       sodipodi:cy="132.25"
       sodipodi:rx="4.25"
       sodipodi:ry="4.25"
       d="m 167.5,132.25 c 0,2.34721 -1.90279,4.25 -4.25,4.25 -2.34721,0 -4.25,-1.90279 -4.25,-4.25 0,-2.34721 1.90279,-4.25 4.25,-4.25 2.34721,0 4.25,1.90279 4.25,4.25 z" /><circle
       cx="43.5"
       cy="71.5"
       r="6.5"
       id="circle3053"
       sodipodi:cx="43.5"
       sodipodi:cy="71.5"
       sodipodi:rx="6.5"
       sodipodi:ry="6.5"
       d="M 50,71.5 C 50,75.089851 47.089851,78 43.5,78 39.910149,78 37,75.089851 37,71.5 37,67.910149 39.910149,65 43.5,65 c 3.589851,0 6.5,2.910149 6.5,6.5 z" /></g><g
     id="g3065"
     transform="translate(-20.722334,-25.944)"><path
       id="path3067"
       d="m 195.381,53.284 c 3.268,-2.532 5.188,-6.409 5.188,-10.579 0,-7.389 -6.012,-13.4 -13.4,-13.4 -3.223,0 -6.269,1.13 -8.691,3.203 C 159.285,14.337 134.214,4.344 107.75,4.344 c -20.787,0 -40.787,6.161 -57.895,17.827 -2.076,-1.349 -4.467,-2.057 -6.963,-2.057 -3.666,0 -7.162,1.575 -9.608,4.326 -3.478,2.836 -5.47,7.021 -5.47,11.499 0,1.826 0.332,3.608 0.987,5.311 -15.454,18.471 -23.958,41.881 -23.958,66 0,14.706 3.037,28.898 9.03,42.202 -1.315,1.086 -2.483,2.292 -3.479,3.594 -7.418,9.707 -5.556,23.64 4.15,31.059 3.894,2.975 8.535,4.548 13.423,4.548 4.358,0 8.691,-1.313 12.306,-3.714 18.715,16.269 42.641,25.218 67.476,25.218 56.743,0 102.906,-46.163 102.906,-102.906 0.001,-19.132 -5.277,-37.767 -15.274,-53.967 z m -2.208,-3.421 c -2.877,-4.273 -6.091,-8.353 -9.575,-12.151 1.337,-1.015 2.958,-1.562 4.664,-1.562 4.268,0 7.74,3.473 7.74,7.741 0,2.348 -1.04,4.511 -2.829,5.972 z M 34.891,26.116 c 2.234,-1.77 4.916,-2.704 7.764,-2.704 1.473,0 2.942,0.27 4.329,0.787 -5.031,3.688 -9.734,7.836 -14.018,12.366 -0.413,-1.146 -0.628,-2.36 -0.628,-3.583 0,-2.515 0.906,-4.949 2.553,-6.866 z M 139.725,202.633 C 138.922,199.952 136.442,198 133.5,198 c -3.591,0 -6.5,2.909 -6.5,6.5 0,0.501 0.062,0.987 0.17,1.455 -6.286,1.234 -12.777,1.889 -19.42,1.889 -24.573,0 -48.235,-8.963 -66.627,-25.237 l -0.696,-0.615 -0.751,0.547 c -3.366,2.451 -7.523,3.802 -11.707,3.802 -4.376,0 -8.532,-1.408 -12.019,-4.073 -8.693,-6.645 -10.361,-19.123 -3.717,-27.816 1.049,-1.373 2.316,-2.629 3.769,-3.734 l 0.738,-0.562 -0.389,-0.843 C 10.249,136.078 7.156,121.925 7.156,107.251 7.156,83.443 15.631,60.344 31.02,42.207 l 0.469,-0.553 -0.293,-0.662 c -0.71,-1.607 -1.069,-3.307 -1.069,-5.052 0,-0.349 0.015,-0.696 0.043,-1.04 0.227,1.498 0.716,2.952 1.448,4.281 l 0.778,1.413 1.088,-1.19 C 38.416,34.008 43.949,29.138 49.93,24.929 l 0.58,-0.402 c 16.864,-11.69 36.657,-17.87 57.239,-17.87 26.226,0 51.055,10.04 69.911,28.271 l 0.822,0.795 0.804,-0.812 c 2.1,-2.124 4.771,-3.293 7.753,-3.293 6.114,0 10.96,4.974 10.96,11.088 0,0.031 0,0.062 0,0.093 0,-5.031 -4.692,-8.961 -9.866,-8.961 -2.7,0 -5.173,1.058 -7.075,2.977 l -0.754,0.792 0.78,0.813 c 3.979,4.238 7.62,8.851 10.808,13.707 l 0.949,1.465 c 10.139,16.045 15.5,34.6 15.5,53.659 0.001,44.294 -28.776,81.991 -68.616,95.382 z"
       inkscape:connector-curvature="0" /><path
       id="path3069"
       d="m 17.501,151.717 -0.717,-1.452 -1.141,1.149 c -0.664,0.668 -1.188,1.261 -1.649,1.864 -6.414,8.393 -4.804,20.439 3.588,26.854 3.36,2.567 7.367,3.925 11.589,3.925 3.076,0 6.145,-0.748 8.872,-2.164 l 1.437,-0.745 -1.171,-1.118 C 29.736,171.849 22.735,162.322 17.501,151.717 z m 11.67,30.027 c -3.71,0 -7.231,-1.193 -10.185,-3.45 -7.379,-5.64 -8.794,-16.231 -3.154,-23.611 0.111,-0.146 0.229,-0.293 0.352,-0.44 5.008,9.745 11.495,18.572 19.311,26.278 -2.005,0.803 -4.162,1.223 -6.324,1.223 z"
       inkscape:connector-curvature="0" /><circle
       id="circle3071"
       r="4.25"
       cy="132.25"
       cx="163.25"
       sodipodi:cx="163.25"
       sodipodi:cy="132.25"
       sodipodi:rx="4.25"
       sodipodi:ry="4.25"
       d="m 167.5,132.25 c 0,2.34721 -1.90279,4.25 -4.25,4.25 -2.34721,0 -4.25,-1.90279 -4.25,-4.25 0,-2.34721 1.90279,-4.25 4.25,-4.25 2.34721,0 4.25,1.90279 4.25,4.25 z" /><circle
       id="circle3073"
       r="6.5"
       cy="71.5"
       cx="43.5"
       sodipodi:cx="43.5"
       sodipodi:cy="71.5"
       sodipodi:rx="6.5"
       sodipodi:ry="6.5"
       d="M 50,71.5 C 50,75.089851 47.089851,78 43.5,78 39.910149,78 37,75.089851 37,71.5 37,67.910149 39.910149,65 43.5,65 c 3.589851,0 6.5,2.910149 6.5,6.5 z" /></g></svg>