<?xml version="1.0" encoding="utf-8"?>
<!-- Generator: Adobe Illustrator 16.0.0, SVG Export Plug-In . SVG Version: 6.00 Build 0)  -->
<!DOCTYPE svg PUBLIC "-//W3C//DTD SVG 1.1//EN" "http://www.w3.org/Graphics/SVG/1.1/DTD/svg11.dtd">
<svg version="1.1" id="Layer_1" xmlns="http://www.w3.org/2000/svg" xmlns:xlink="http://www.w3.org/1999/xlink" x="0px" y="0px"
	 width="48px" height="48px" viewBox="0 0 48 48" enable-background="new 0 0 48 48" xml:space="preserve">
<g>
	<path fill="#F0624D" d="M34.941,29c0.029-0.328,0.045-0.663,0.045-1c0-6.075-4.926-11-11-11c-6.075,0-11,4.925-11,11
		c0,0.337,0.015,0.672,0.044,1h2.011c-0.036-0.328-0.055-0.662-0.055-1c0-4.971,4.029-9,9-9c4.969,0,9,4.029,9,9
		c0,0.338-0.02,0.672-0.055,1H34.941L34.941,29L34.941,29z M23.986,9c-0.553,0-1,0.432-1,0.99v4.02c0,0.546,0.463,0.99,1,0.99
		c0.551,0,1-0.431,1-0.99V9.99C24.986,9.444,24.521,9,23.986,9L23.986,9L23.986,9z M37.463,14.582
		c-0.391-0.391-1.012-0.402-1.408-0.007l-2.842,2.842c-0.387,0.387-0.373,1.029,0.008,1.407c0.389,0.391,1.012,0.403,1.406,0.007
		l2.842-2.842C37.855,15.603,37.842,14.961,37.463,14.582L37.463,14.582L37.463,14.582z M43.045,28.059c0-0.553-0.434-1-0.992-1
		h-4.018c-0.549,0-0.99,0.463-0.99,1c0,0.552,0.43,1,0.99,1h4.018C42.6,29.059,43.045,28.595,43.045,28.059L43.045,28.059
		L43.045,28.059z M4.928,28.059c0,0.552,0.432,1,0.991,1h4.018c0.548,0,0.991-0.464,0.991-1c0-0.553-0.432-1-0.991-1H5.919
		C5.371,27.059,4.928,27.521,4.928,28.059L4.928,28.059L4.928,28.059z M10.51,14.582c-0.391,0.391-0.402,1.012-0.007,1.407
		l2.842,2.842c0.387,0.387,1.028,0.374,1.407-0.007c0.391-0.391,0.402-1.012,0.007-1.407l-2.842-2.842
		C11.53,14.188,10.889,14.204,10.51,14.582L10.51,14.582L10.51,14.582z"/>
</g>
<path fill="#F0624D" d="M6.002,35c-0.562,0-1.016-0.464-1.016-1c0-0.553,0.453-1,1.016-1H17.9l6.1,5.199L30.1,33h11.871
	c0.561,0,1.016,0.465,1.016,1c0,0.554-0.453,1-0.916,1H30.887L24,40.9L17.1,35H6.002L6.002,35z"/>
</svg>
