<?xml version="1.0" encoding="utf-8"?>
<!-- Generator: Adobe Illustrator 16.0.0, SVG Export Plug-In . SVG Version: 6.00 Build 0)  -->
<!DOCTYPE svg PUBLIC "-//W3C//DTD SVG 1.1//EN" "http://www.w3.org/Graphics/SVG/1.1/DTD/svg11.dtd">
<svg version="1.1" id="Layer_1" xmlns="http://www.w3.org/2000/svg" xmlns:xlink="http://www.w3.org/1999/xlink" x="0px" y="0px"
	 width="48px" height="48px" viewBox="0 0 48 48" enable-background="new 0 0 48 48" xml:space="preserve">
<path fill="#F0A630" d="M35.014,29c0.029-0.328,0.045-0.663,0.045-1c0-6.075-4.926-11-11-11c-6.075,0-11,4.925-11,11
	c0,0.337,0.015,0.672,0.044,1h2.011c-0.036-0.328-0.055-0.662-0.055-1c0-4.971,4.029-9,9-9c4.969,0,9,4.029,9,9
	c0,0.338-0.02,0.672-0.055,1H35.014L35.014,29L35.014,29z M24.059,9c-0.553,0-1,0.432-1,0.99v4.02c0,0.546,0.463,0.99,1,0.99
	c0.551,0,1-0.431,1-0.99V9.99C25.059,9.444,24.594,9,24.059,9L24.059,9L24.059,9z M37.535,14.582
	c-0.391-0.391-1.012-0.402-1.408-0.007l-2.842,2.842c-0.387,0.387-0.373,1.029,0.008,1.407c0.389,0.391,1.012,0.403,1.406,0.007
	l2.842-2.842C37.928,15.603,37.914,14.961,37.535,14.582L37.535,14.582L37.535,14.582z M43.117,28.059c0-0.553-0.434-1-0.992-1
	h-4.018c-0.549,0-0.99,0.463-0.99,1c0,0.552,0.43,1,0.99,1h4.018C42.672,29.059,43.117,28.595,43.117,28.059L43.117,28.059
	L43.117,28.059z M5,28.059c0,0.552,0.432,1,0.991,1h4.018c0.548,0,0.991-0.464,0.991-1c0-0.553-0.432-1-0.991-1H5.991
	C5.443,27.059,5,27.521,5,28.059L5,28.059L5,28.059z M10.582,14.582c-0.391,0.391-0.402,1.012-0.007,1.407l2.842,2.842
	c0.387,0.387,1.028,0.374,1.407-0.007c0.391-0.391,0.402-1.012,0.007-1.407l-2.842-2.842C11.603,14.188,10.961,14.204,10.582,14.582
	L10.582,14.582L10.582,14.582z M6.074,33H17.1l6.9-5.9l6.959,5.9h11.084c0.562,0,1.016,0.446,1.016,1c0,0.535-0.455,1-1.016,1H30.1
	L24,29.801L17.9,35H6.074c-0.562,0-1.016-0.447-1.016-1C5.059,33.464,5.513,33,6.074,33L6.074,33z"/>
</svg>
