<?xml version="1.0" encoding="UTF-8" standalone="no"?>
<!-- Created with Inkscape (http://www.inkscape.org/) -->

<svg
   xmlns:dc="http://purl.org/dc/elements/1.1/"
   xmlns:cc="http://creativecommons.org/ns#"
   xmlns:rdf="http://www.w3.org/1999/02/22-rdf-syntax-ns#"
   xmlns:svg="http://www.w3.org/2000/svg"
   xmlns="http://www.w3.org/2000/svg"
   version="1.1"
   width="305.70544"
   height="322.3212"
   id="svg2">
  <defs
     id="defs4" />
  <metadata
     id="metadata7">
    <rdf:RDF>
      <cc:Work
         rdf:about="">
        <dc:format>image/svg+xml</dc:format>
        <dc:type
           rdf:resource="http://purl.org/dc/dcmitype/StillImage" />
        <dc:title></dc:title>
      </cc:Work>
    </rdf:RDF>
  </metadata>
  <path
     d="m 12.627017,97.028638 -5.316639,9.304122 0,180.10113 174.119912,29.24151 11.96244,-2.65832 105.00361,-91.71202 0,-180.101126 -5.98122,-7.310378 L 118.95979,6.645783 z"
     id="path4440"
     style="fill:#1a1a1a;stroke:#000000;stroke-width:1px;stroke-linecap:butt;stroke-linejoin:miter;stroke-opacity:1" />
  <path
     d="m 269.1214,121.90124 c 0,0 28.0225,-23.878381 28.0225,-23.878381 1.94056,-1.65357 3.50573,-5.62247 3.50934,-8.89886 0,0 0.0522,-47.31249 0.0522,-47.31249 0.004,-3.27639 -1.55573,-4.58284 -3.49629,-2.92926 0,0 -28.0225,23.87837 -28.0225,23.87837 -1.94056,1.65358 -3.50572,5.62247 -3.50934,8.89886 0,0 -0.0522,47.312491 -0.0522,47.312491 -0.004,3.27639 1.55574,4.58285 3.49629,2.92927 0,0 0,0 0,0"
     id="path4819"
     style="fill:#bd2221;fill-opacity:1;fill-rule:evenodd;stroke:#000000;stroke-width:4.5;stroke-linecap:butt;stroke-linejoin:miter;stroke-miterlimit:4;stroke-opacity:1;stroke-dasharray:none" />
  <path
     d="m 269.05095,185.77311 c 0,0 28.0225,-23.87838 28.0225,-23.87838 1.94056,-1.65358 3.50572,-5.62247 3.50933,-8.89886 0,0 0.0522,-47.31249 0.0522,-47.31249 0.004,-3.27639 -1.55573,-4.58285 -3.49629,-2.92927 0,0 -28.0225,23.87838 -28.0225,23.87838 -1.94055,1.65358 -3.50572,5.62247 -3.50933,8.89886 0,0 -0.0522,47.31249 -0.0522,47.31249 -0.004,3.27639 1.55573,4.58284 3.49629,2.92927 0,0 0,0 0,0"
     id="path4817"
     style="fill:#3a39d4;fill-opacity:1;fill-rule:evenodd;stroke:#000000;stroke-width:4.5;stroke-linecap:butt;stroke-linejoin:miter;stroke-miterlimit:4;stroke-opacity:1;stroke-dasharray:none" />
  <path
     d="m 268.98049,249.64497 c 0,0 28.0225,-23.87838 28.0225,-23.87838 1.94056,-1.65357 3.50573,-5.62246 3.50934,-8.89885 0,0 0.0522,-47.3125 0.0522,-47.3125 0.004,-3.27639 -1.55573,-4.58284 -3.49629,-2.92926 0,0 -28.0225,23.87837 -28.0225,23.87837 -1.94056,1.65358 -3.50572,5.62247 -3.50934,8.89886 0,0 -0.0522,47.3125 -0.0522,47.3125 -0.004,3.27639 1.55574,4.58284 3.49629,2.92926 0,0 0,0 0,0"
     id="path4815"
     style="fill:#bd2221;fill-opacity:1;fill-rule:evenodd;stroke:#000000;stroke-width:4.5;stroke-linecap:butt;stroke-linejoin:miter;stroke-miterlimit:4;stroke-opacity:1;stroke-dasharray:none" />
  <path
     d="m 231.29103,154.13705 c 0,0 28.0225,-23.87838 28.0225,-23.87838 1.94056,-1.65358 3.50572,-5.62247 3.50933,-8.89886 0,0 0.0522,-47.312491 0.0522,-47.312491 0.004,-3.27639 -1.55573,-4.58285 -3.49629,-2.92927 0,0 -28.0225,23.87838 -28.0225,23.87838 -1.94055,1.65357 -3.50572,5.622471 -3.50933,8.898861 0,0 -0.0522,47.31249 -0.0522,47.31249 -0.004,3.27639 1.55573,4.58284 3.49629,2.92927 0,0 0,0 0,0"
     id="path4813"
     style="fill:#bd2221;fill-opacity:1;fill-rule:evenodd;stroke:#000000;stroke-width:4.5;stroke-linecap:butt;stroke-linejoin:miter;stroke-miterlimit:4;stroke-opacity:1;stroke-dasharray:none" />
  <path
     d="m 231.22057,218.00891 c 0,0 28.0225,-23.87837 28.0225,-23.87837 1.94056,-1.65358 3.50573,-5.62247 3.50934,-8.89886 0,0 0.0522,-47.3125 0.0522,-47.3125 0.004,-3.27639 -1.55573,-4.58284 -3.49629,-2.92926 0,0 -28.0225,23.87838 -28.0225,23.87838 -1.94056,1.65357 -3.50572,5.62246 -3.50934,8.89885 0,0 -0.0522,47.3125 -0.0522,47.3125 -0.004,3.27639 1.55573,4.58284 3.49629,2.92926 0,0 0,0 0,0"
     id="path4811"
     style="fill:#3a39d4;fill-opacity:1;fill-rule:evenodd;stroke:#000000;stroke-width:4.5;stroke-linecap:butt;stroke-linejoin:miter;stroke-miterlimit:4;stroke-opacity:1;stroke-dasharray:none" />
  <path
     d="m 231.15012,281.88078 c 0,0 28.0225,-23.87838 28.0225,-23.87838 1.94056,-1.65357 3.50572,-5.62246 3.50933,-8.89885 0,0 0.0522,-47.3125 0.0522,-47.3125 0.004,-3.27639 -1.55573,-4.58284 -3.49629,-2.92926 0,0 -28.0225,23.87837 -28.0225,23.87837 -1.94055,1.65358 -3.50572,5.62247 -3.50933,8.89886 0,0 -0.0522,47.3125 -0.0522,47.3125 -0.004,3.27639 1.55573,4.58284 3.49629,2.92926 0,0 0,0 0,0"
     id="path4809"
     style="fill:#bd2221;fill-opacity:1;fill-rule:evenodd;stroke:#000000;stroke-width:4.5;stroke-linecap:butt;stroke-linejoin:miter;stroke-miterlimit:4;stroke-opacity:1;stroke-dasharray:none" />
  <path
     d="m 193.46065,186.37285 c 0,0 28.0225,-23.87837 28.0225,-23.87837 1.94056,-1.65358 3.50572,-5.62247 3.50934,-8.89886 0,0 0.0522,-47.3125 0.0522,-47.3125 0.004,-3.27639 -1.55573,-4.58284 -3.49629,-2.92926 0,0 -28.0225,23.87838 -28.0225,23.87838 -1.94056,1.65357 -3.50572,5.62246 -3.50934,8.89885 0,0 -0.0522,47.3125 -0.0522,47.3125 -0.004,3.27639 1.55573,4.58284 3.49629,2.92926 0,0 0,0 0,0"
     id="path4807"
     style="fill:#bd2221;fill-opacity:1;fill-rule:evenodd;stroke:#000000;stroke-width:4.5;stroke-linecap:butt;stroke-linejoin:miter;stroke-miterlimit:4;stroke-opacity:1;stroke-dasharray:none" />
  <path
     d="m 193.3902,250.24472 c 0,0 28.0225,-23.87837 28.0225,-23.87837 1.94056,-1.65358 3.50572,-5.62247 3.50933,-8.89886 0,0 0.0522,-47.3125 0.0522,-47.3125 0.004,-3.27639 -1.55573,-4.58284 -3.49629,-2.92926 0,0 -28.0225,23.87837 -28.0225,23.87837 -1.94056,1.65358 -3.50572,5.62247 -3.50933,8.89886 0,0 -0.0522,47.3125 -0.0522,47.3125 -0.004,3.27639 1.55573,4.58284 3.49629,2.92926 0,0 0,0 0,0"
     id="path4805"
     style="fill:#3a39d4;fill-opacity:1;fill-rule:evenodd;stroke:#000000;stroke-width:4.5;stroke-linecap:butt;stroke-linejoin:miter;stroke-miterlimit:4;stroke-opacity:1;stroke-dasharray:none" />
  <path
     d="m 193.31974,314.11659 c 0,0 28.0225,-23.87838 28.0225,-23.87838 1.94056,-1.65357 3.50572,-5.62246 3.50934,-8.89885 0,0 0.0522,-47.3125 0.0522,-47.3125 0.004,-3.27639 -1.55573,-4.58284 -3.49629,-2.92926 0,0 -28.0225,23.87837 -28.0225,23.87837 -1.94056,1.65358 -3.50573,5.62247 -3.50934,8.89886 0,0 -0.0522,47.3125 -0.0522,47.3125 -0.004,3.27639 1.55573,4.58284 3.49629,2.92926 0,0 0,0 0,0"
     id="use3934"
     style="fill:#bd2221;fill-opacity:1;fill-rule:evenodd;stroke:#000000;stroke-width:4.5;stroke-linecap:butt;stroke-linejoin:miter;stroke-miterlimit:4;stroke-opacity:1;stroke-dasharray:none" />
  <path
     d="m 56.463004,170.19555 c 0,0 -45.62543,-7.15308 -45.62543,-7.15308 -3.1595602,-0.49535 -5.7002702,-3.5318 -5.6966602,-6.80819 0,0 0.0522,-47.31249 0.0522,-47.31249 0.004,-3.27639 2.55015,-5.51528 5.7097102,-5.01993 0,0 45.62543,7.15307 45.62543,7.15307 3.15956,0.49535 5.70026,3.53181 5.69665,6.8082 0,0 -0.0522,47.31249 -0.0522,47.31249 -0.004,3.27639 -2.55014,5.51528 -5.7097,5.01993 0,0 0,0 0,0"
     id="path4783"
     style="fill:#ebebeb;fill-opacity:1;fill-rule:evenodd;stroke:#000000;stroke-width:4.5;stroke-linecap:butt;stroke-linejoin:miter;stroke-miterlimit:4;stroke-opacity:1;stroke-dasharray:none" />
  <path
     d="m 56.392544,234.06742 c 0,0 -45.62543,-7.15307 -45.62543,-7.15307 -3.1595602,-0.49535 -5.7002602,-3.53181 -5.6966502,-6.8082 0,0 0.0522,-47.3125 0.0522,-47.3125 0.004,-3.27639 2.55014,-5.51528 5.7097002,-5.01993 0,0 45.62543,7.15308 45.62543,7.15308 3.15956,0.49535 5.70027,3.5318 5.69666,6.80819 0,0 -0.0522,47.31251 -0.0522,47.31251 -0.004,3.27639 -2.55015,5.51527 -5.70971,5.01992 0,0 0,0 0,0"
     id="path4781"
     style="fill:#ff7f00;fill-opacity:1;fill-rule:evenodd;stroke:#000000;stroke-width:4.5;stroke-linecap:butt;stroke-linejoin:miter;stroke-miterlimit:4;stroke-opacity:1;stroke-dasharray:none" />
  <path
     d="m 56.322094,297.93928 c 0,0 -45.62543,-7.15307 -45.62543,-7.15307 -3.1595602,-0.49535 -5.7002702,-3.53181 -5.6966602,-6.8082 0,0 0.0522,-47.31248 0.0522,-47.31248 0.004,-3.27639 2.55014,-5.51528 5.7097102,-5.01993 0,0 45.62542,7.15307 45.62542,7.15307 3.15957,0.49535 5.70027,3.53181 5.69666,6.8082 0,0 -0.0522,47.31249 -0.0522,47.31249 -0.004,3.27639 -2.55014,5.51528 -5.7097,5.01992 0,0 0,0 0,0"
     id="path4779"
     style="fill:#ebebeb;fill-opacity:1;fill-rule:evenodd;stroke:#000000;stroke-width:4.5;stroke-linecap:butt;stroke-linejoin:miter;stroke-miterlimit:4;stroke-opacity:1;stroke-dasharray:none" />
  <path
     d="m 118.05733,179.85219 c 0,0 -45.625426,-7.15307 -45.625426,-7.15307 -3.15956,-0.49535 -5.70027,-3.53181 -5.69665,-6.8082 0,0 0.0522,-47.31248 0.0522,-47.31248 0.004,-3.27639 2.55015,-5.51528 5.70971,-5.01993 0,0 45.625426,7.15307 45.625426,7.15307 3.15956,0.49535 5.70027,3.53181 5.69665,6.8082 0,0 -0.0522,47.31249 -0.0522,47.31249 -0.004,3.27639 -2.55014,5.51527 -5.7097,5.01992 0,0 0,0 0,0"
     id="path4777"
     style="fill:#ebebeb;fill-opacity:1;fill-rule:evenodd;stroke:#000000;stroke-width:4.5;stroke-linecap:butt;stroke-linejoin:miter;stroke-miterlimit:4;stroke-opacity:1;stroke-dasharray:none" />
  <path
     d="m 117.98688,243.72407 c 0,0 -45.625426,-7.15307 -45.625426,-7.15307 -3.15957,-0.49535 -5.70027,-3.53181 -5.69666,-6.8082 0,0 0.0522,-47.3125 0.0522,-47.3125 0.004,-3.27639 2.55014,-5.51528 5.7097,-5.01993 0,0 45.625426,7.15307 45.625426,7.15307 3.15956,0.49535 5.70027,3.53181 5.69666,6.8082 0,0 -0.0522,47.31251 -0.0522,47.31251 -0.004,3.27639 -2.55014,5.51527 -5.7097,5.01992 0,0 0,0 0,0"
     id="path4775"
     style="fill:#ff7f00;fill-opacity:1;fill-rule:evenodd;stroke:#000000;stroke-width:4.5;stroke-linecap:butt;stroke-linejoin:miter;stroke-miterlimit:4;stroke-opacity:1;stroke-dasharray:none" />
  <path
     d="m 117.91642,307.59594 c 0,0 -45.625426,-7.15308 -45.625426,-7.15308 -3.15956,-0.49535 -5.70027,-3.53181 -5.69665,-6.8082 0,0 0.0522,-47.31248 0.0522,-47.31248 0.004,-3.27639 2.55015,-5.51528 5.70971,-5.01993 0,0 45.625426,7.15307 45.625426,7.15307 3.15956,0.49535 5.70027,3.53181 5.69665,6.8082 0,0 -0.0522,47.31249 -0.0522,47.31249 -0.004,3.27639 -2.55014,5.51528 -5.7097,5.01993 0,0 0,0 0,0"
     id="path4773"
     style="fill:#ebebeb;fill-opacity:1;fill-rule:evenodd;stroke:#000000;stroke-width:4.5;stroke-linecap:butt;stroke-linejoin:miter;stroke-miterlimit:4;stroke-opacity:1;stroke-dasharray:none" />
  <path
     d="m 179.65167,189.50884 c 0,0 -45.62544,-7.15307 -45.62544,-7.15307 -3.15956,-0.49535 -5.70027,-3.53181 -5.69665,-6.8082 0,0 0.0522,-47.31248 0.0522,-47.31248 0.004,-3.27639 2.55014,-5.51528 5.7097,-5.01993 0,0 45.62543,7.15307 45.62543,7.15307 3.15956,0.49535 5.70027,3.53181 5.69666,6.8082 0,0 -0.0522,47.31248 -0.0522,47.31248 -0.004,3.2764 -2.55015,5.51528 -5.7097,5.01993 0,0 0,0 0,0"
     id="path4771"
     style="fill:#ebebeb;fill-opacity:1;fill-rule:evenodd;stroke:#000000;stroke-width:4.5;stroke-linecap:butt;stroke-linejoin:miter;stroke-miterlimit:4;stroke-opacity:1;stroke-dasharray:none" />
  <path
     d="m 179.58121,253.38072 c 0,0 -45.62543,-7.15307 -45.62543,-7.15307 -3.15956,-0.49535 -5.70027,-3.53181 -5.69666,-6.8082 0,0 0.0522,-47.3125 0.0522,-47.3125 0.004,-3.27639 2.55014,-5.51528 5.7097,-5.01993 0,0 45.62544,7.15307 45.62544,7.15307 3.15956,0.49535 5.70026,3.53181 5.69665,6.8082 0,0 -0.0522,47.31251 -0.0522,47.31251 -0.004,3.27639 -2.55014,5.51527 -5.7097,5.01992 0,0 0,0 0,0"
     id="path4769"
     style="fill:#ff7f00;fill-opacity:1;fill-rule:evenodd;stroke:#000000;stroke-width:4.5;stroke-linecap:butt;stroke-linejoin:miter;stroke-miterlimit:4;stroke-opacity:1;stroke-dasharray:none" />
  <path
     d="m 179.51075,317.25259 c 0,0 -45.62543,-7.15308 -45.62543,-7.15308 -3.15956,-0.49535 -5.70027,-3.5318 -5.69665,-6.8082 0,0 0.0522,-47.31248 0.0522,-47.31248 0.004,-3.27639 2.55014,-5.51528 5.7097,-5.01993 0,0 45.62543,7.15307 45.62543,7.15307 3.15956,0.49535 5.70027,3.53181 5.69665,6.8082 0,0 -0.0522,47.31249 -0.0522,47.31249 -0.004,3.27639 -2.55015,5.51528 -5.70971,5.01993 0,0 0,0 0,0"
     id="use3934-1"
     style="fill:#ebebeb;fill-opacity:1;fill-rule:evenodd;stroke:#000000;stroke-width:4.5;stroke-linecap:butt;stroke-linejoin:miter;stroke-miterlimit:4;stroke-opacity:1;stroke-dasharray:none" />
  <path
     d="m 209.30652,50.415179 c 0,0 28.0225,-23.87838 28.0225,-23.87838 1.94056,-1.65357 6.04643,-2.58601 9.20599,-2.09066 0,0 45.62543,7.15308 45.62543,7.15308 3.15957,0.49535 4.14093,2.22535 2.20037,3.87893 0,0 -28.0225,23.87837 -28.0225,23.87837 -1.94056,1.65358 -6.04643,2.58602 -9.20599,2.09067 0,0 -45.62544,-7.15308 -45.62544,-7.15308 -3.15956,-0.49535 -4.14092,-2.22535 -2.20036,-3.87893 0,0 0,0 0,0"
     id="path4801"
     style="fill:#3a39d4;fill-opacity:1;fill-rule:evenodd;stroke:#000000;stroke-width:4.5;stroke-linecap:butt;stroke-linejoin:miter;stroke-miterlimit:4;stroke-opacity:1;stroke-dasharray:none" />
  <path
     d="m 147.7122,40.758529 c 0,0 28.02251,-23.87837 28.02251,-23.87837 1.94055,-1.65358 6.04643,-2.58602 9.20599,-2.09067 0,0 45.62544,7.15308 45.62544,7.15308 3.15956,0.49535 4.14092,2.22535 2.20036,3.87893 0,0 -28.0225,23.87838 -28.0225,23.87838 -1.94056,1.65358 -6.04643,2.58601 -9.20599,2.09066 0,0 -45.62544,-7.15307 -45.62544,-7.15307 -3.15956,-0.49535 -4.14092,-2.22536 -2.20037,-3.87894 0,0 0,0 0,0"
     id="path4799"
     style="fill:#f1f131;fill-opacity:1;fill-rule:evenodd;stroke:#000000;stroke-width:4.5;stroke-linecap:butt;stroke-linejoin:miter;stroke-miterlimit:4;stroke-opacity:1;stroke-dasharray:none" />
  <path
     d="m 86.117864,31.101879 c 0,0 28.022496,-23.8783796 28.022496,-23.8783796 1.94056,-1.65357 6.04643,-2.58601 9.20599,-2.09066 0,0 45.62544,7.1530796 45.62544,7.1530796 3.15957,0.49535 4.14093,2.22535 2.20037,3.87893 0,0 -28.0225,23.87838 -28.0225,23.87838 -1.94056,1.65357 -6.04643,2.58601 -9.20599,2.09066 0,0 -45.625436,-7.15308 -45.625436,-7.15308 -3.15956,-0.49535 -4.14093,-2.22535 -2.20037,-3.87893 0,0 0,0 0,0"
     id="path4797"
     style="fill:#3a39d4;fill-opacity:1;fill-rule:evenodd;stroke:#000000;stroke-width:4.5;stroke-linecap:butt;stroke-linejoin:miter;stroke-miterlimit:4;stroke-opacity:1;stroke-dasharray:none" />
  <path
     d="m 171.47614,82.650989 c 0,0 28.0225,-23.87838 28.0225,-23.87838 1.94056,-1.65357 6.04643,-2.58601 9.20599,-2.09066 0,0 45.62544,7.15308 45.62544,7.15308 3.15956,0.49535 4.14092,2.22535 2.20036,3.87893 0,0 -28.0225,23.87837 -28.0225,23.87837 -1.94055,1.65358 -6.04643,2.58601 -9.20599,2.09066 0,0 -45.62543,-7.15307 -45.62543,-7.15307 -3.15956,-0.49535 -4.14093,-2.22535 -2.20037,-3.87893 0,0 0,0 0,0"
     id="path4795"
     style="fill:#3a39d4;fill-opacity:1;fill-rule:evenodd;stroke:#000000;stroke-width:4.5;stroke-linecap:butt;stroke-linejoin:miter;stroke-miterlimit:4;stroke-opacity:1;stroke-dasharray:none" />
  <path
     d="m 109.88183,72.994339 c 0,0 28.0225,-23.87837 28.0225,-23.87837 1.94056,-1.65358 6.04643,-2.58602 9.20599,-2.09067 0,0 45.62544,7.15308 45.62544,7.15308 3.15956,0.49535 4.14092,2.22535 2.20037,3.87893 0,0 -28.02251,23.87838 -28.02251,23.87838 -1.94055,1.65357 -6.04643,2.58601 -9.20599,2.09066 0,0 -45.62544,-7.15308 -45.62544,-7.15308 -3.15956,-0.49535 -4.14092,-2.22535 -2.20036,-3.87893 0,0 0,0 0,0"
     id="path4793"
     style="fill:#f1f131;fill-opacity:1;fill-rule:evenodd;stroke:#000000;stroke-width:4.5;stroke-linecap:butt;stroke-linejoin:miter;stroke-miterlimit:4;stroke-opacity:1;stroke-dasharray:none" />
  <path
     d="m 48.287484,63.337689 c 0,0 28.0225,-23.87838 28.0225,-23.87838 1.94056,-1.65357 6.04643,-2.58601 9.206,-2.09066 0,0 45.625436,7.15308 45.625436,7.15308 3.15956,0.49535 4.14092,2.22535 2.20036,3.87893 0,0 -28.0225,23.87838 -28.0225,23.87838 -1.94055,1.65357 -6.046426,2.58601 -9.205986,2.09066 0,0 -45.62544,-7.15308 -45.62544,-7.15308 -3.15956,-0.49535 -4.14092,-2.22535 -2.20037,-3.87893 0,0 0,0 0,0"
     id="path4791"
     style="fill:#f1f131;fill-opacity:1;fill-rule:evenodd;stroke:#000000;stroke-width:4.5;stroke-linecap:butt;stroke-linejoin:miter;stroke-miterlimit:4;stroke-opacity:1;stroke-dasharray:none" />
  <path
     d="m 133.64577,114.8868 c 0,0 28.02249,-23.878381 28.02249,-23.878381 1.94056,-1.65358 6.04644,-2.58601 9.206,-2.09066 0,0 45.62543,7.15307 45.62543,7.15307 3.15956,0.49535 4.14093,2.22536 2.20037,3.87893 0,0 -28.0225,23.878381 -28.0225,23.878381 -1.94056,1.65358 -6.04643,2.58601 -9.20599,2.09066 0,0 -45.62544,-7.15307 -45.62544,-7.15307 -3.15956,-0.49535 -4.14092,-2.22536 -2.20036,-3.87893 0,0 0,0 0,0"
     id="path4789"
     style="fill:#3a39d4;fill-opacity:1;fill-rule:evenodd;stroke:#000000;stroke-width:4.5;stroke-linecap:butt;stroke-linejoin:miter;stroke-miterlimit:4;stroke-opacity:1;stroke-dasharray:none" />
  <path
     d="m 72.051454,105.23015 c 0,0 28.022496,-23.878371 28.022496,-23.878371 1.94056,-1.65358 6.04643,-2.58602 9.20599,-2.09067 0,0 45.62544,7.15308 45.62544,7.15308 3.15956,0.49535 4.14093,2.22535 2.20037,3.87893 0,0 -28.0225,23.878371 -28.0225,23.878371 -1.94056,1.65358 -6.04643,2.58602 -9.20599,2.09067 0,0 -45.625436,-7.15308 -45.625436,-7.15308 -3.15956,-0.49535 -4.14093,-2.22535 -2.20037,-3.87893 0,0 0,0 0,0"
     id="path4787"
     style="fill:#3a39d4;fill-opacity:1;fill-rule:evenodd;stroke:#000000;stroke-width:4.5;stroke-linecap:butt;stroke-linejoin:miter;stroke-miterlimit:4;stroke-opacity:1;stroke-dasharray:none" />
  <path
     d="m 10.457114,95.573499 c 0,0 28.0225,-23.87838 28.0225,-23.87838 1.94056,-1.65357 6.04643,-2.58601 9.20599,-2.09066 0,0 45.62544,7.15308 45.62544,7.15308 3.15956,0.49535 4.14093,2.22535 2.20037,3.87893 0,0 -28.0225,23.878371 -28.0225,23.878371 -1.94056,1.65358 -6.04643,2.58602 -9.20599,2.09067 0,0 -45.62544,-7.153081 -45.62544,-7.153081 -3.1595702,-0.49535 -4.1409302,-2.22535 -2.20037,-3.87893 0,0 0,0 0,0"
     id="use3934-6"
     style="fill:#3a39d4;fill-opacity:1;fill-rule:evenodd;stroke:#000000;stroke-width:4.5;stroke-linecap:butt;stroke-linejoin:miter;stroke-miterlimit:4;stroke-opacity:1;stroke-dasharray:none" />
</svg>
